<?xml version="1.0" encoding="UTF-8" standalone="no"?><!DOCTYPE svg PUBLIC "-//W3C//DTD SVG 1.1//EN" "http://www.w3.org/Graphics/SVG/1.1/DTD/svg11.dtd"><svg width="100%" height="100%" viewBox="0 0 192 192" version="1.1" xmlns="http://www.w3.org/2000/svg" xmlns:xlink="http://www.w3.org/1999/xlink" xml:space="preserve" xmlns:serif="http://www.serif.com/" style="fill-rule:evenodd;clip-rule:evenodd;stroke-linejoin:round;stroke-miterlimit:2;"><g id="Google-Button"><g id="btn_google_light_normal"><g id="logo_googleg_48dp"><path id="Shape" d="M167.833,97.538c0,-5.318 -0.477,-10.432 -1.363,-15.341l-70.637,0l0,29.011l40.364,0c-1.739,9.375 -7.023,17.319 -14.966,22.637l0,18.818l24.239,0c14.182,-13.057 22.363,-32.284 22.363,-55.125Z" style="fill:#4285f4;"/><path id="Shape1" serif:id="Shape" d="M95.833,170.833c20.25,0 37.228,-6.716 49.637,-18.17l-24.239,-18.818c-6.716,4.5 -15.307,7.159 -25.398,7.159c-19.534,0 -36.068,-13.193 -41.966,-30.921l-25.056,0l0,19.432c12.341,24.512 37.704,41.318 67.022,41.318Z" style="fill:#34a853;"/><path id="Shape2" serif:id="Shape" d="M53.867,110.083c-1.5,-4.5 -2.352,-9.306 -2.352,-14.25c0,-4.943 0.852,-9.75 2.352,-14.25l0,-19.431l-25.056,0c-5.08,10.125 -7.978,21.579 -7.978,33.681c0,12.103 2.898,23.557 7.978,33.682l25.056,-19.432Z" style="fill:#fbbc05;"/><path id="Shape3" serif:id="Shape" d="M95.833,50.663c11.012,0 20.898,3.784 28.671,11.216l21.511,-21.512c-12.988,-12.102 -29.966,-19.534 -50.182,-19.534c-29.318,0 -54.681,16.807 -67.022,41.319l25.056,19.431c5.898,-17.727 22.432,-30.92 41.966,-30.92Z" style="fill:#ea4335;"/><rect id="Shape4" serif:id="Shape" x="20.833" y="20.833" width="150" height="150" style="fill:none;"/></g></g></g></svg>