<?xml version="1.0" encoding="UTF-8" standalone="no"?><!DOCTYPE svg PUBLIC "-//W3C//DTD SVG 1.1//EN" "http://www.w3.org/Graphics/SVG/1.1/DTD/svg11.dtd"><svg width="100%" height="100%" viewBox="0 0 209 209" version="1.1" xmlns="http://www.w3.org/2000/svg" xmlns:xlink="http://www.w3.org/1999/xlink" xml:space="preserve" xmlns:serif="http://www.serif.com/" style="fill-rule:evenodd;clip-rule:evenodd;stroke-linecap:round;stroke-linejoin:round;stroke-miterlimit:1.5;"><g><path d="M5.25,104.167l100,-100l97.833,100" style="fill:none;stroke:#000;stroke-width:6.96px;"/><path d="M13.921,112.279l0.162,87.721" style="fill:none;stroke:#000;stroke-width:6.96px;"/><path d="M194.371,112.279l0,87.721" style="fill:none;stroke:#000;stroke-width:6.96px;"/></g><g><path d="M24.8,179.483c19.6,0 17.929,-12.5 34.425,-12.5c16.5,0 19.208,12.5 41.863,12.5c25.195,0 25.129,-12.5 41.37,-12.5c17.292,0 17.246,12.5 41.688,12.5" style="fill:none;stroke:#000;stroke-width:4.17px;"/><path d="M24.494,164.787c19.6,0 17.929,-12.5 34.425,-12.5c16.5,0 19.208,12.5 41.862,12.5c25.196,0 25.129,-12.5 41.371,-12.5c17.292,0 17.246,12.5 41.688,12.5" style="fill:none;stroke:#000;stroke-width:4.17px;"/><g><path d="M69.75,151.967c1.1,-5.9 2.008,-12.046 1.854,-18.054c-0.604,-23.571 -27.517,-30.121 -22.896,-39.588c5.571,-11.408 98.659,2.279 110.196,61.788" style="fill:none;stroke:#000;stroke-width:4.17px;"/></g></g></svg>